<svg fill="#45474D" xmlns="http://www.w3.org/2000/svg" xmlns:xlink="http://www.w3.org/1999/xlink" version="1.1" x="0px" y="0px" viewBox="0 0 90 90" enable-background="new 0 0 90 90" xml:space="preserve"><g><path fill="#45474D" d="M30.816,14.26l19.7,11.374c0.544,0.31,1.24,0.121,1.553-0.42l0.568-0.983   c0.315-0.542,0.129-1.238-0.413-1.553l-19.7-11.375c-0.544-0.313-1.241-0.126-1.553,0.416l-0.568,0.985   C30.088,13.248,30.275,13.945,30.816,14.26z"></path><path fill="#45474D" d="M13.762,43.809L33.458,55.18c0.544,0.311,1.241,0.127,1.553-0.415l0.568-0.983   c0.315-0.541,0.129-1.24-0.416-1.556L15.465,40.857c-0.542-0.315-1.241-0.126-1.551,0.415l-0.568,0.986   C13.028,42.794,13.215,43.494,13.762,43.809z"></path><path fill="#45474D" d="M83.222,57.703L43.797,37.271l5.3-9.179c0.315-0.539,0.126-1.241-0.413-1.554l-17.73-10.236   c-0.542-0.311-1.241-0.124-1.554,0.418L16.89,38.388c-0.31,0.542-0.126,1.241,0.416,1.554l17.73,10.233   c0.542,0.315,1.241,0.126,1.551-0.415l5.302-9.179l37.406,23.926c0.525,0.336,1.215,0.168,1.524-0.373l2.845-4.927   C83.974,58.671,83.774,57.993,83.222,57.703z"></path><path fill="#45474D" d="M89.441,60.579l-1.972-1.136c-0.538-0.315-1.24-0.126-1.553,0.416l-3.415,5.909   c-0.311,0.541-0.121,1.24,0.418,1.551l1.969,1.136c0.542,0.315,1.241,0.126,1.557-0.416l3.411-5.909   C90.167,61.589,89.983,60.89,89.441,60.579z"></path><path fill="#45474D" d="M46.878,67.593h-2.371c0.297-0.337,0.497-0.768,0.497-1.251V64.47c0-1.03-0.844-1.877-1.874-1.877H5.618   c-1.036,0-1.877,0.847-1.877,1.877v1.872c0,0.483,0.2,0.914,0.5,1.251H1.87c-1.039,0-1.877,0.847-1.877,1.877v7.502   c0,1.03,0.841,1.877,1.877,1.877h45.011c1.035,0,1.874-0.847,1.874-1.877v-7.508C48.755,68.439,47.914,67.593,46.878,67.593z    M44.209,76.262H4.708c-1.085,0-1.974-0.889-1.974-1.972v-1.977c0.002-1.083,0.889-1.977,1.974-1.972h39.501   c1.091,0,1.98,0.889,1.975,1.967l0.005,1.981C46.185,75.373,45.3,76.262,44.209,76.262z"></path></g></svg>