<svg fill="#45474D" xmlns="http://www.w3.org/2000/svg" xmlns:xlink="http://www.w3.org/1999/xlink" version="1.1" x="0px" y="0px" viewBox="0 0 100 100" enable-background="new 0 0 100 100" xml:space="preserve"><circle cx="64.942" cy="23.133" r="10.508"></circle><path d="M46.439,75.021l-8.096-21.596l-0.056-0.118c-0.201-0.407-0.623-0.676-1.083-0.676H25.56v-3.094l-0.019-0.297H21.87v3.392  H10.226c-0.443,0-0.848,0.246-1.058,0.626L0.962,75.096c-0.044,0.137-0.057,0.287-0.024,0.562c0.022,0.145,0.074,0.284,0.134,0.366  l0.075,0.152c0.093,0.116,0.187,0.207,0.242,0.233c0.143,0.168,3.526,4.089,8.836,4.089c5.211,0,8.69-3.917,8.79-4.044  c0.108-0.079,0.2-0.17,0.288-0.28l0.065-0.111c0.073-0.138,0.121-0.265,0.158-0.497c0.02-0.152,0.009-0.311-0.063-0.545  l-7.474-19.947h9.881v27.462h-6.634v3.676h16.789v-3.676h-6.487l0.021-27.462h9.883l-7.504,20.021  c-0.043,0.133-0.058,0.283-0.019,0.566c0.022,0.141,0.072,0.275,0.201,0.503c0.08,0.107,0.174,0.202,0.248,0.249  c0.146,0.168,3.622,4.085,8.837,4.085c5.312,0,8.693-3.921,8.782-4.04c0.117-0.083,0.215-0.179,0.229-0.228l0.122-0.151  c0.083-0.15,0.133-0.283,0.174-0.532C46.522,75.375,46.51,75.229,46.439,75.021z M43.541,74.228H30.867l6.337-16.896L43.541,74.228z   M10.226,57.331l6.337,16.896H3.893L10.226,57.331z"></path><path d="M92.093,59.858v-8.348c0-7.348-5.441-14.547-14.038-14.547h-4.262l-6.577,14.621V36.673h-4.548v14.764l-6.511-14.474  L16.071,36.91c-6.652-0.021-6.731,9.635-0.08,9.635h33.764l0.012,39.667h20.52v-0.017h29.046V59.858H92.093z M80.722,52.216h2.72  v7.643h-2.724L80.722,52.216z M71.273,62.548h12.168v10.516H71.273V62.548z M96.643,83.507H71.273v-7.754h12.168v0.527  c0,6.651,8.67,6.651,8.651,0v-0.527h4.55V83.507z M96.643,73.063h-4.55V62.548h4.55V73.063z"></path></svg>