<svg xmlns="http://www.w3.org/2000/svg" xmlns:xlink="http://www.w3.org/1999/xlink" preserveAspectRatio="xMidYMid" width="436.505" height="97.188" viewBox="0 0 436.505 97.188">
  <defs>
    <style>
      .cls-1 {
        fill: #f7f7f7;
        opacity: 0.8;
        fill-rule: evenodd;
      }
    </style>
  </defs>
  <g>
    <path d="M436.098,51.350 C436.006,51.903 435.879,52.537 435.719,53.251 C435.557,53.966 435.408,54.692 435.270,55.428 C434.901,57.180 434.487,59.138 434.028,61.303 L429.612,61.303 L431.130,53.908 L430.371,52.180 C429.588,51.811 428.461,51.523 426.989,51.316 C425.516,51.108 423.976,51.005 422.366,51.005 C418.915,51.005 416.385,51.696 414.775,53.078 C413.164,54.461 412.360,56.119 412.360,58.054 C412.360,59.668 412.853,61.061 413.843,62.236 C414.832,63.411 416.062,64.517 417.535,65.553 C419.007,66.590 420.617,67.604 422.366,68.594 C424.114,69.586 425.723,70.692 427.196,71.912 C428.668,73.133 429.898,74.550 430.888,76.163 C431.877,77.776 432.372,79.687 432.372,81.899 C432.372,84.204 431.911,86.288 430.992,88.154 C430.071,90.020 428.725,91.622 426.955,92.957 C425.183,94.294 422.987,95.331 420.364,96.068 C417.742,96.804 414.728,97.173 411.324,97.173 C409.714,97.173 408.161,97.058 406.666,96.828 C405.171,96.597 403.803,96.299 402.560,95.929 C401.318,95.561 400.225,95.169 399.283,94.754 C398.339,94.340 397.592,93.925 397.040,93.510 L399.662,80.931 L404.079,80.931 L402.353,89.156 L403.251,90.815 C403.572,91.091 404.055,91.380 404.700,91.679 C405.343,91.979 406.068,92.255 406.873,92.508 C407.678,92.762 408.530,92.957 409.427,93.096 C410.324,93.234 411.209,93.303 412.084,93.303 C416.086,93.303 419.179,92.520 421.365,90.953 C423.550,89.387 424.643,87.106 424.643,84.111 C424.643,82.314 424.148,80.771 423.159,79.480 C422.169,78.191 420.939,77.016 419.467,75.955 C417.994,74.896 416.385,73.882 414.637,72.914 C412.888,71.947 411.278,70.875 409.806,69.700 C408.333,68.525 407.103,67.178 406.114,65.657 C405.125,64.137 404.631,62.317 404.631,60.197 C404.631,56.005 406.218,52.779 409.392,50.521 C412.567,48.264 417.213,47.134 423.332,47.134 C426.506,47.134 429.128,47.354 431.199,47.791 C433.269,48.229 435.039,48.793 436.512,49.484 C436.328,50.175 436.190,50.797 436.098,51.350 ZM387.655,87.428 C385.401,90.331 382.502,92.681 378.960,94.478 C375.417,96.275 371.139,97.173 366.125,97.173 C363.410,97.173 360.742,96.781 358.120,95.998 C355.498,95.215 353.128,93.994 351.012,92.335 C348.896,90.677 347.193,88.569 345.906,86.011 C344.617,83.454 343.973,80.379 343.973,76.785 C343.973,73.052 344.560,69.401 345.733,65.830 C346.906,62.260 348.700,59.091 351.116,56.327 C353.531,53.562 356.578,51.340 360.259,49.657 C363.939,47.976 368.264,47.134 373.233,47.134 C376.314,47.134 379.144,47.584 381.721,48.482 C384.297,49.381 386.493,50.683 388.311,52.387 C390.128,54.092 391.542,56.143 392.555,58.538 C393.566,60.935 394.073,63.607 394.073,66.556 C394.073,70.242 393.566,73.916 392.555,77.579 C391.542,81.242 389.909,84.525 387.655,87.428 ZM381.790,54.979 C379.351,52.330 375.924,51.005 371.507,51.005 C368.240,51.005 365.411,51.765 363.019,53.286 C360.627,54.806 358.660,56.788 357.119,59.229 C355.577,61.672 354.439,64.437 353.703,67.523 C352.967,70.611 352.599,73.721 352.599,76.854 C352.599,79.803 353.001,82.314 353.807,84.387 C354.611,86.461 355.670,88.154 356.981,89.467 C358.292,90.780 359.799,91.748 361.501,92.370 C363.203,92.992 364.928,93.303 366.677,93.303 C370.265,93.303 373.255,92.485 375.648,90.849 C378.039,89.214 379.961,87.106 381.410,84.525 C382.859,81.945 383.894,79.077 384.515,75.921 C385.137,72.765 385.447,69.666 385.447,66.625 C385.447,61.510 384.228,57.629 381.790,54.979 ZM295.944,96.344 L296.703,92.474 L302.983,92.474 L311.609,51.834 L305.329,51.834 L306.157,47.964 L327.619,47.964 L326.790,51.834 L319.338,51.834 L310.712,92.474 L329.068,92.474 L330.793,90.953 L332.794,81.415 L337.763,81.415 L334.588,96.344 L295.944,96.344 ZM254.608,96.344 L255.367,92.474 L261.647,92.474 L270.273,51.834 L263.993,51.834 L264.821,47.964 L286.283,47.964 L285.455,51.834 L278.002,51.834 L269.376,92.474 L287.732,92.474 L289.457,90.953 L291.458,81.415 L296.427,81.415 L293.253,96.344 L254.608,96.344 ZM233.285,96.344 L234.113,92.474 L240.255,92.474 L238.392,80.309 L220.174,80.309 L212.859,92.474 L218.794,92.474 L217.965,96.344 L201.197,96.344 L202.025,92.474 L207.269,92.474 L234.458,47.964 L241.773,47.964 L248.536,92.474 L253.643,92.474 L252.814,96.344 L233.285,96.344 ZM235.907,60.473 C235.861,60.335 235.838,59.886 235.838,59.126 C235.838,58.365 235.815,57.525 235.769,56.603 C235.723,55.590 235.700,54.438 235.700,53.147 L235.424,53.147 L231.698,60.612 L222.589,76.439 L238.047,76.439 L235.907,60.473 ZM201.611,59.299 L202.922,53.355 L201.818,51.834 L184.290,51.834 L180.287,70.772 L192.778,70.772 L194.020,69.735 L194.710,66.417 L199.127,66.417 C198.850,67.661 198.620,68.756 198.436,69.700 C198.252,70.645 198.045,71.659 197.815,72.741 C197.585,73.824 197.367,74.839 197.160,75.782 C196.953,76.727 196.711,77.821 196.435,79.065 L192.019,79.065 L192.778,75.748 L191.950,74.642 L179.459,74.642 L175.664,92.474 L183.048,92.474 L182.220,96.344 L161.586,96.344 L162.345,92.474 L167.935,92.474 L176.561,51.834 L170.971,51.834 L171.799,47.964 L208.443,47.964 L206.027,59.299 L201.611,59.299 ZM159.999,59.299 L161.310,53.355 L160.206,51.834 L142.678,51.834 L138.676,70.772 L151.166,70.772 L152.408,69.735 L153.099,66.417 L157.515,66.417 C157.239,67.661 157.008,68.756 156.825,69.700 C156.641,70.645 156.434,71.659 156.204,72.741 C155.973,73.824 155.755,74.839 155.548,75.782 C155.341,76.727 155.100,77.821 154.824,79.065 L150.407,79.065 L151.166,75.748 L150.338,74.642 L137.848,74.642 L134.052,92.474 L141.436,92.474 L140.608,96.344 L119.975,96.344 L120.734,92.474 L126.323,92.474 L134.949,51.834 L129.360,51.834 L130.188,47.964 L166.831,47.964 L164.416,59.299 L159.999,59.299 ZM120.734,51.834 L114.868,79.480 C113.580,85.562 111.153,89.997 107.588,92.785 C104.022,95.573 99.318,96.966 93.476,96.966 C90.393,96.966 87.771,96.609 85.609,95.895 C83.446,95.181 81.675,94.201 80.295,92.957 C78.915,91.713 77.915,90.227 77.293,88.499 C76.672,86.772 76.362,84.871 76.362,82.798 C76.362,81.093 76.569,79.273 76.983,77.337 L82.366,51.834 L76.086,51.834 L76.914,47.964 L96.512,47.964 L95.684,51.834 L90.094,51.834 L84.712,77.199 C84.527,78.121 84.378,78.974 84.263,79.756 C84.148,80.540 84.091,81.323 84.091,82.106 C84.091,85.424 85.010,87.958 86.851,89.709 C88.691,91.461 91.544,92.335 95.408,92.335 C103.505,92.335 108.496,88.005 110.383,79.342 L116.317,51.834 L110.659,51.834 L111.487,47.964 L127.842,47.964 L127.014,51.834 L120.734,51.834 ZM66.770,92.474 L65.942,96.344 L55.246,96.344 L45.171,75.402 L38.132,75.402 L34.543,92.474 L40.478,92.474 L39.650,96.344 L19.776,96.344 L20.535,92.474 L26.814,92.474 L35.440,51.834 L29.161,51.834 L29.989,47.964 L36.959,47.964 C39.029,47.964 41.306,47.872 43.790,47.687 C46.275,47.504 48.690,47.411 51.036,47.411 C56.188,47.411 60.099,48.390 62.768,50.348 C65.435,52.307 66.770,55.175 66.770,58.953 C66.770,61.258 66.332,63.319 65.459,65.139 C64.584,66.959 63.458,68.525 62.077,69.839 C60.697,71.152 59.133,72.212 57.385,73.018 C55.636,73.824 53.888,74.366 52.140,74.642 L62.146,92.474 L66.770,92.474 ZM54.072,68.767 C55.315,67.708 56.303,66.372 57.040,64.759 C57.775,63.146 58.144,61.234 58.144,59.022 C58.144,56.534 57.408,54.622 55.936,53.286 C54.463,51.950 51.979,51.281 48.483,51.281 C47.286,51.281 46.275,51.328 45.447,51.419 C44.618,51.512 43.859,51.604 43.169,51.696 L38.891,71.877 L44.342,71.877 C46.228,71.877 48.011,71.625 49.691,71.117 C51.369,70.611 52.830,69.828 54.072,68.767 Z" class="cls-1"/>
    <path d="M71.956,5.772 L69.708,5.772 L70.375,2.747 L69.813,1.973 L61.209,1.973 L59.277,11.084 L65.212,11.084 L65.845,10.556 L66.161,9.079 L68.408,9.079 L67.144,15.094 L64.896,15.094 L65.212,13.616 L64.791,13.053 L58.856,13.053 L56.819,22.656 L66.020,22.656 L66.863,21.953 L67.601,18.506 L69.848,18.506 L68.549,24.626 L49.303,24.626 L49.689,22.656 L52.885,22.656 L57.275,1.973 L54.079,1.973 L54.501,0.004 L73.185,0.004 L71.956,5.772 ZM48.987,1.973 L44.597,22.656 L47.793,22.656 L47.371,24.626 L37.362,24.626 L37.748,22.656 L40.663,22.656 L42.735,12.983 L30.443,12.983 L28.371,22.656 L31.286,22.656 L30.864,24.626 L20.855,24.626 L21.241,22.656 L24.437,22.656 L28.827,1.973 L25.631,1.973 L26.053,0.004 L36.097,0.004 L35.676,1.973 L32.761,1.973 L30.864,11.013 L43.157,11.013 L45.053,1.973 L42.138,1.973 L42.560,0.004 L52.604,0.004 L52.183,1.973 L48.987,1.973 ZM20.434,7.285 L21.417,2.747 L20.820,1.973 L14.569,1.973 L10.179,22.656 L13.796,22.656 L13.375,24.626 L2.206,24.626 L2.628,22.656 L6.245,22.656 L10.635,1.973 L4.314,1.973 L3.506,2.747 L2.522,7.285 L-0.006,7.285 L1.539,0.004 L24.508,0.004 L22.963,7.285 L20.434,7.285 Z" class="cls-1"/>
  </g>
</svg>
