<svg fill="#CD2122" xmlns="http://www.w3.org/2000/svg" xmlns:xlink="http://www.w3.org/1999/xlink" version="1.1" viewBox="0 0 136 96" x="0px" y="0px"><path d="M48 76.84c-11.284 0-17.432-11.924-17.964-24.252-2.888-0.716-6.036-2.828-6.036-5.752v-8c0-2.5 2.42-4.304 4-5.216v-14.78c0-1.104 0.896-2 2-2s2 0.896 2 2v16c0 0.784-0.464 1.5-1.18 1.824-1.42 0.644-2.74 1.748-2.82 2.192v7.984c0.084 0.64 2.356 2 4 2 1.104 0 2 0.896 2 2 0 8.844 3.728 22 14 22s14-13.156 14-22c0-1.104 0.896-2 2-2 1.644 0 3.916-1.36 4-2.004v-7.996c0-2 0-2-2-2-1.104 0-2-0.896-2-2v-16c0-1.104 0.896-2 2-2s2 0.896 2 2v14.176c4 0.78 4 3.992 4 5.824v8c0 2.916-3.148 5.044-6.032 5.752-0.536 12.324-6.684 24.248-17.968 24.248z" fill="#CD2122"></path><path d="M48 22.176c-0.14 0-0.276-0.016-0.412-0.044l-36.5-7.664c-0.928-0.196-1.592-1.016-1.588-1.964s0.676-1.764 1.604-1.952l36.5-7.336c0.256-0.056 0.52-0.052 0.776-0.004l37.668 7.336c0.932 0.184 1.604 1.004 1.612 1.956 0 0.952-0.672 1.776-1.596 1.968l-37.664 7.664c-0.132 0.028-0.264 0.040-0.4 0.040zM21.436 12.556l26.568 5.584 27.416-5.584-27.416-5.34-26.568 5.34z" fill="#CD2122"></path><path d="M48 33.344c-6.804 0-13.42-0.976-18.64-2.752-1.040-0.36-1.604-1.496-1.248-2.54 0.36-1.044 1.496-1.584 2.54-1.252 9.628 3.272 25.076 3.272 34.704 0 1.048-0.34 2.18 0.208 2.536 1.252 0.356 1.048-0.204 2.184-1.248 2.54-5.22 1.776-11.836 2.752-18.644 2.752z" fill="#CD2122"></path><path d="M86.004 50.84h-8.040c-0.608 0-1.188-0.276-1.564-0.752-0.388-0.472-0.528-1.088-0.396-1.692l3.992-17.776v-15.78c0-1.104 0.896-2 2-2 1.096 0 2 0.896 2 2v15.78l3.948 17.78c0.132 0.592-0.008 1.216-0.392 1.684-0.368 0.488-0.948 0.756-1.548 0.756zM80.456 46.84h3.048l-1.516-6.824-1.532 6.824z" fill="#CD2122"></path><path d="M2 92.84c-1.104 0-2-0.896-2-2 0-11.584 9.252-20 22-20h4.932l5.324-7.94c0.616-0.92 1.856-1.172 2.776-0.552 0.916 0.612 1.164 1.856 0.548 2.768l-5.916 8.836c-0.372 0.556-0.996 0.888-1.664 0.888h-6c-10.596 0-18 6.584-18 16 0 1.104-0.896 2-2 2z" fill="#CD2122"></path><path d="M93.916 92.84c-1.1 0-2-0.896-2-2 0-9.416-7.412-16-18-16h-6c-0.668 0-1.292-0.332-1.664-0.888l-5.916-8.836c-0.612-0.916-0.368-2.156 0.548-2.768 0.916-0.62 2.156-0.372 2.776 0.552l5.324 7.94h4.932c12.752 0 22 8.412 22 20 0 1.104-0.888 2-2 2z" fill="#CD2122"></path><path d="M48 88.844c-0.4 0-0.804-0.116-1.148-0.364l-20-14.004c-0.908-0.632-1.124-1.884-0.492-2.784 0.632-0.904 1.888-1.12 2.784-0.488l18.852 13.204 18.768-13.204c0.904-0.624 2.152-0.416 2.788 0.488 0.636 0.912 0.416 2.148-0.488 2.784l-19.912 14.004c-0.344 0.248-0.744 0.364-1.152 0.364z" fill="#CD2122"></path><path d="M88.004 22.176c-0.14 0-0.272-0.016-0.416-0.044l-5.944-1.252c-1.084-0.228-1.772-1.28-1.556-2.368 0.224-1.088 1.296-1.788 2.376-1.548l5.54 1.16 27.416-5.584-27.416-5.34-17.608 3.54c-1.080 0.244-2.14-0.476-2.356-1.568-0.216-1.084 0.484-2.136 1.568-2.356l18-3.616c0.256-0.056 0.528-0.052 0.78-0.004l37.664 7.336c0.936 0.184 1.608 1.004 1.616 1.956 0 0.952-0.672 1.776-1.6 1.968l-37.664 7.664c-0.136 0.044-0.268 0.056-0.4 0.056z" fill="#CD2122"></path><path d="M88.004 33.344c-2.056 0-4.108-0.088-6.116-0.264-1.1-0.088-1.916-1.068-1.82-2.168 0.092-1.088 1.084-1.9 2.164-1.812 7.86 0.696 16.812-0.14 23.124-2.288 1.048-0.34 2.18 0.208 2.54 1.252 0.352 1.056-0.212 2.184-1.252 2.548-5.22 1.756-11.836 2.732-18.64 2.732z" fill="#CD2122"></path><path d="M126.004 50.84h-8.040c-0.608 0-1.188-0.276-1.564-0.752-0.388-0.472-0.528-1.088-0.396-1.692l3.992-17.776v-15.78c0-1.104 0.896-2 2-2 1.096 0 2 0.896 2 2v15.78l3.948 17.78c0.132 0.592-0.008 1.216-0.392 1.684-0.368 0.488-0.948 0.756-1.548 0.756zM120.456 46.84h3.048l-1.516-6.824-1.532 6.824z" fill="#CD2122"></path><path d="M133.668 92.84c-1.1 0-2-0.896-2-2 0-9.416-7.296-16-17.752-16h-6c-0.656 0-1.264-0.32-1.64-0.856l-6.172-8.832c-0.288-0.416-0.416-0.924-0.344-1.432l0.104-0.72c0.020-0.136 0.060-0.272 0.1-0.416 1.3-3.5 2.024-7.672 2.024-11.752 0-1.104 0.904-2 2-2 1.648 0 3.916-1.36 4-2.004v-7.988c0-2 0-2-2-2-1.096 0-2-0.896-2-2v-16c0-1.104 0.904-2 2-2 1.104 0 2 0.896 2 2v14.176c4 0.78 4 3.992 4 5.824v8c0 2.916-3.148 5.044-6.044 5.752-0.164 3.812-0.892 7.64-2.084 10.976l5.084 7.268h4.96c12.804 0 21.748 8.224 21.748 20 0.016 1.108-0.884 2.004-1.984 2.004z" fill="#CD2122"></path><path d="M92.496 85.688c-0.632 0-1.252-0.296-1.64-0.852-0.632-0.908-0.416-2.148 0.484-2.78l15.428-10.852c0.908-0.632 2.148-0.416 2.788 0.488 0.628 0.904 0.416 2.148-0.492 2.784l-15.42 10.848c-0.352 0.248-0.748 0.364-1.148 0.364z" fill="#CD2122"></path></svg>