<svg fill="#CD2122" xmlns="http://www.w3.org/2000/svg" xmlns:xlink="http://www.w3.org/1999/xlink" version="1.1" x="0px" y="0px" viewBox="-82 25.7 90 90" style="enable-background:new -82 25.7 90 90;" xml:space="preserve"><path d="M5.2,64.6H0.7c-1.3-7.3-5-9.6-7.8-10.3c1-2.3,1.6-5.4,1.6-7.6c0-5.6-3.4-9.5-8.3-9.5s-8.3,3.9-8.3,9.5  c0,2.2,0.6,5.4,1.6,7.7c-0.7,0.4-1.5,1.1-2.5,2.5c-1.5-2.6-1.6-5.8-1.7-6.6c0.3-0.8,1-3.7-1.1-7.3c-2.3-3.8-7.1-6.2-12.1-3.8  c-2-1.1-4.6-0.9-6.8,0.4c-2.9,1.7-4.5,5-4.1,8.8c0.4,4.4-0.8,6.6-1.8,8.5c-1-1.3-1.8-2-2.5-2.4c1.1-2.3,1.6-5.4,1.6-7.7  c0-5.6-3.4-9.5-8.3-9.5c-4.9,0-8.3,3.9-8.3,9.5c0,2.2,0.5,5.3,1.6,7.6c-2.8,0.7-6.5,3-7.8,10.3h-4.5c-1.7,0-3,1.3-3,3s1.3,3,3,3h0.1  v19.5c0,0.6,0.4,1,1,1h20.4v11.6c0,0.6,0.4,1,1,1h39.1c0.6,0,1-0.4,1-1V91.1H4.1c0.6,0,1-0.4,1-1V70.6h0.1c1.7,0,3-1.3,3-3  S6.8,64.6,5.2,64.6z M-19.3,56C-19.3,56-19.3,56-19.3,56C-19.3,56-19.3,56-19.3,56c0.2,0,0.3,0,0.4,0c0,0,0.1,0,0.1,0  c0.1,0,0.1,0,0.2-0.1c0,0,0,0,0.1,0c0,0,0,0,0,0c0.1,0,0.1-0.1,0.2-0.2c0,0,0.1-0.1,0.1-0.1c0,0,0,0,0,0c0,0,0-0.1,0-0.1  c0-0.1,0.1-0.1,0.1-0.2c0-0.1,0-0.1,0-0.2c0-0.1,0-0.1,0-0.2c0-0.1,0-0.1-0.1-0.2c0,0,0-0.1,0-0.1c-1.2-1.9-1.9-5.5-1.9-7.8  c0-4.5,2.5-7.5,6.3-7.5c3.8,0,6.3,3,6.3,7.5c0,2.4-0.7,6-2,7.9c-0.3,0.5-0.2,1.1,0.3,1.4c0.2,0.1,0.4,0.2,0.5,0.2  c0.1,0,0.2,0,0.3-0.1c3.6,0.4,6.1,3.4,7,8.5h-23.1c-0.2,0-0.4,0.1-0.5,0.2c-0.3-0.5-0.6-1-1-1.5c1.7-0.3,3.7-1,4.3-2.4  c0.2-0.5,0.3-1.3-0.3-2.3C-20.3,56.5-19.5,56.1-19.3,56z M-16.7,78.7h-40.4c-1,0-1.8-0.8-1.8-1.8s0.8-1.8,1.8-1.8h40.4  c1,0,1.8,0.8,1.8,1.8S-15.7,78.7-16.7,78.7z M-50.4,73c1.1-6.7,4.5-10.9,9.6-11.8c1.1,0.5,2.3,0.8,3.5,0.8c0.1,0,0.3,0,0.4,0  c1.5-0.1,2.9-0.3,4.1-0.9c0.4,0,2.2,0.3,4.1,2.2c0,0,0.1,0.1,0.1,0.1c1.7,1.7,3.4,4.6,4.2,9.6H-50.4z M-36.9,60  c-3.2,0.2-6-2.2-6.7-5.5c7.5-0.4,11.6-2.8,13.7-4.8C-30.5,59.6-33.9,59.8-36.9,60z M-50,60.2c0.1-0.8,0.5-1.5,1-2.4  c1.1-2,2.5-4.7,2.1-9.7c-0.3-3,0.9-5.5,3.2-6.9c1.7-1,3.7-1.1,5.1-0.1c0.3,0.2,0.7,0.2,1,0c4.3-2.3,8.2-0.2,9.9,2.8  c1.9,3.2,1,5.6,0.9,5.7c-0.1,0.1-0.1,0.3-0.1,0.4c0,0.2,0,5.8,3,9.3c0.3,0.3,0.4,0.6,0.3,0.7c-0.3,0.6-2.3,1.2-4.1,1.4  c-1.2-1-2.3-1.6-3.2-2c1.9-2.1,2.9-6,2.9-12.8c0,0,0,0,0,0c0,0,0,0,0,0c0,0,0-0.1,0-0.1c0-0.1,0-0.2,0-0.2c0-0.1-0.1-0.1-0.1-0.2  c0-0.1-0.1-0.1-0.1-0.2c-0.1-0.1-0.1-0.1-0.2-0.1c0,0-0.1-0.1-0.1-0.1c0,0,0,0,0,0c-0.1,0-0.1,0-0.2,0c-0.1,0-0.1,0-0.2,0  c0,0,0,0,0,0c0,0-0.1,0-0.1,0c-0.1,0-0.2,0-0.2,0c-0.1,0-0.1,0.1-0.2,0.1c-0.1,0-0.1,0.1-0.2,0.1c-0.1,0.1-0.1,0.1-0.1,0.2  c0,0-0.1,0.1-0.1,0.1c0,0.1-2.9,5.9-15,6.2c0,0,0,0,0,0c0,0,0,0,0,0c-0.1,0-0.1,0-0.2,0c-0.1,0-0.1,0-0.2,0.1  c-0.1,0-0.1,0.1-0.2,0.1c-0.1,0-0.1,0.1-0.2,0.1c0,0-0.1,0.1-0.1,0.2c0,0.1-0.1,0.1-0.1,0.2c0,0.1,0,0.1,0,0.2c0,0.1,0,0.1,0,0.2  c0,0,0,0,0,0c0,0,0,0,0,0c0.1,2.5,1.2,4.6,2.8,6.1c-1.1,0.4-2.4,1-3.6,1.9c-1.2,0-2.9-0.2-3.4-0.8C-50,60.7-50.1,60.6-50,60.2z   M-65.4,56.1c0.1,0,0.2,0.1,0.3,0.1c0.2,0,0.4-0.1,0.5-0.2c0.5-0.3,0.6-0.9,0.3-1.4c-1.2-1.9-2-5.5-2-7.9c0-4.5,2.5-7.5,6.3-7.5  s6.3,3,6.3,7.5c0,2.3-0.7,5.9-1.9,7.8c0,0,0,0.1,0,0.1c0,0.1-0.1,0.1-0.1,0.2c0,0.1,0,0.1,0,0.2c0,0.1,0,0.1,0,0.2  c0,0.1,0,0.1,0.1,0.2c0,0,0,0.1,0,0.1c0,0,0,0,0,0c0,0,0.1,0.1,0.1,0.1c0.1,0.1,0.1,0.1,0.2,0.2c0,0,0,0,0,0c0,0,0,0,0.1,0  C-55,56-55,56-54.9,56c0,0,0.1,0,0.1,0c0.1,0,0.2,0,0.3,0c0,0,0,0,0,0c0,0,0,0,0,0c0.2,0.1,1,0.4,2.6,2.6c0,0.1,0.1,0.1,0.2,0.2  c-0.1,0.4-0.3,0.7-0.3,1.1c-0.2,0.9,0.1,1.6,0.6,2.2c0.7,0.8,1.8,1.1,2.9,1.3c-0.3,0.4-0.6,0.7-0.9,1.2h-23  C-71.4,59.5-69,56.5-65.4,56.1z M-79.9,67.6c0-0.6,0.4-1,1-1h28.4c-0.3,0.6-0.6,1.3-0.8,2h-26.5h-1.1  C-79.5,68.6-79.9,68.2-79.9,67.6z M-76.8,89.1V70.6h24.9c-0.2,0.7-0.3,1.5-0.5,2.4h-4.6c-2.1,0-3.8,1.7-3.8,3.8c0,2,1.5,3.6,3.5,3.8  v8.5H-76.8z M-18.3,101.7h-37.1v-21h37.1V101.7z M3.1,89.1h-19.4v-8.5c1.9-0.2,3.5-1.8,3.5-3.8c0-2.1-1.7-3.8-3.8-3.8h-5.6  c-0.1-0.8-0.3-1.6-0.5-2.4H3.1V89.1z M5.2,68.6H4.1h-27.2c-0.1,0-0.1,0-0.1,0c-0.2-0.7-0.5-1.4-0.8-2H5.2c0.6,0,1,0.4,1,1  S5.7,68.6,5.2,68.6z"></path></svg>