<svg fill="#FBC42C" xmlns="http://www.w3.org/2000/svg" xmlns:xlink="http://www.w3.org/1999/xlink" version="1.1" x="0px" y="0px" viewBox="0 0 100 100" enable-background="new 0 0 100 100" xml:space="preserve"><g><path d="M34.3,66.5c-0.5-0.5-1-1-1.5-1.5c-0.9-1-2.1-2.4-3.2-3.8c-3.4-4.2-6.9-8.6-9.9-8.6c-0.3,0-0.7,0.1-1,0.2   c-1.1,0.4-1.9,1.1-2.3,2.1c-0.2,0.4-0.2,0.8-0.3,1.2c-1.4-2.7-2.1-4.4-2.1-7.7l-0.1-8.7c0-9.1-5.7-9.8-7.4-9.8c-0.4,0-0.7,0-0.7,0   C5.3,30,5,30.3,5,30.7v25.1c0,3.1,1.2,6,3.3,8.2l14.6,14.8c1.8,1.8,2.8,4.2,2.8,6.8c0,2.3,1.9,4.2,4.2,4.2h6.7   c2.3,0,4.2-1.9,4.2-4.2l0-5.9C40.6,72.7,37.4,69.6,34.3,66.5z M39.2,85.6c0,1.4-1.1,2.6-2.6,2.6h-6.7c-1.4,0-2.6-1.1-2.6-2.6   c0-3-1.2-5.8-3.3-8L9.5,62.9c-1.9-1.9-2.9-4.4-2.9-7V31.5c1.8,0.1,5.6,1.1,5.6,8.1l0.1,8.7c0,4,1,6,2.8,9.4c0,0,0,0.1,0.1,0.1   l1.9,2.4l4.3,6.3c0.2,0.2,0.4,0.4,0.7,0.4c0.2,0,0.3,0,0.5-0.1c0.4-0.3,0.5-0.8,0.2-1.1l-4.3-6.3c-0.3-0.7-1-2.6-0.5-3.9   c0.2-0.5,0.6-0.9,1.3-1.2c0.1-0.1,0.3-0.1,0.5-0.1c2.3,0,6,4.6,8.7,8c1.2,1.5,2.3,2.9,3.3,3.9c0.5,0.5,1,1,1.5,1.5   c3.1,3.1,5.8,5.7,6,12.1V85.6z"></path><path d="M94.3,29.9c0,0-0.3,0-0.7,0c-1.7,0-7.4,0.7-7.4,9.8L86,48.4c0,3.3-0.7,5-2.1,7.7c0-0.4-0.1-0.8-0.3-1.2   c-0.4-1-1.2-1.7-2.3-2.1c-0.3-0.1-0.7-0.2-1-0.2c-3.1,0-6.6,4.4-9.9,8.6c-1.2,1.5-2.3,2.9-3.2,3.8c-0.5,0.5-1,1-1.5,1.5   c-3.1,3-6.3,6.2-6.5,13.3v5.8c0,2.3,1.9,4.2,4.2,4.2h6.7c2.3,0,4.2-1.9,4.2-4.2c0-2.6,1-5,2.8-6.8L91.7,64c2.2-2.2,3.3-5.1,3.3-8.2   V30.7C95,30.3,94.7,30,94.3,29.9z M93.4,55.8c0,2.6-1,5.1-2.9,7L75.9,77.7c-2.1,2.1-3.3,5-3.3,8c0,1.4-1.1,2.6-2.6,2.6h-6.7   c-1.4,0-2.6-1.1-2.6-2.6l0-5.8c0.2-6.4,2.9-9.1,6-12.1c0.5-0.5,1-1,1.5-1.5c1-1,2.1-2.4,3.3-3.9c2.7-3.4,6.4-8,8.7-8   c0.2,0,0.3,0,0.5,0.1c0.7,0.2,1.1,0.6,1.3,1.2c0.5,1.3-0.2,3.2-0.5,3.9l-5.2,7.4c-0.3,0.4-0.2,0.9,0.2,1.1c0.1,0.1,0.3,0.1,0.5,0.1   c0.3,0,0.5-0.1,0.7-0.4l5.2-7.5l1.9-2.4c0,0,0-0.1,0.1-0.1c1.8-3.4,2.8-5.3,2.8-9.4l0.1-8.7c0-7,3.7-8.1,5.6-8.1V55.8z"></path><path d="M75.8,36.4c0-14.5-11.8-26.2-26.2-26.2S23.3,21.9,23.3,36.4s11.8,26.2,26.2,26.2S75.8,50.9,75.8,36.4z M25,37.2h10.4   c0.1,4.1,0.8,7.7,1.9,10.7c-3.3,1.6-5.4,3.5-6.4,4.4C27.4,48.3,25.2,43,25,37.2z M34.6,23.7c-0.1,0.6-0.1,1.2,0,1.9   c0.2,1,0.9,1.8,1.7,2.4c-0.6,2.4-0.9,5-0.9,7.6H25c0.2-5.7,2.3-10.9,5.7-15C31.3,21.2,32.6,22.4,34.6,23.7z M68.4,20.6   c3.4,4.1,5.5,9.3,5.7,15h-6.2c-0.3-1.6-1.7-2.9-3.3-3.2c-0.3-2.9-0.9-5.5-1.7-7.7C65.8,23.1,67.6,21.4,68.4,20.6z M64,38.8   c-1.3,0-2.4-1.1-2.4-2.4c0-1.3,1.1-2.4,2.4-2.4c1.3,0,2.4,1.1,2.4,2.4C66.4,37.7,65.3,38.8,64,38.8z M63,32.5   c-1.5,0.4-2.6,1.6-2.9,3.1h-9.6V28c4.5-0.1,8.1-1.2,11-2.5C62.1,27.5,62.7,29.9,63,32.5z M37.9,28.5c0.2,0,0.4,0.1,0.6,0.1   c1.3,0,2.5-0.6,3.3-1.7c2.2,0.6,4.6,1,6.9,1v7.6H37C37.1,33.1,37.4,30.8,37.9,28.5z M50.4,26.3V11.8c0,0,0.1,0,0.1,0   c1.1,0.6,7,4.1,10.3,12.1C58.1,25.1,54.6,26.2,50.4,26.3z M48.7,26.3c-2.1-0.1-4.2-0.4-6.3-0.9c0.2-0.7,0.1-1.5-0.1-2.2   c-0.3-0.9-0.9-1.6-1.6-2.1c2.7-4.8,6.2-7.6,8-8.7V26.3z M39.4,22.3c0.7,0.2,1.2,0.8,1.4,1.4c0.3,0.8,0.2,1.6-0.3,2.2   c-0.6,0.8-1.6,1.2-2.6,0.9c-0.8-0.2-1.5-0.9-1.7-1.7c-0.2-0.8,0-1.5,0.4-2.1c0.5-0.6,1.1-0.9,1.9-0.9   C38.8,22.2,39.1,22.2,39.4,22.3z M37.1,37.2h11.7v8c-3.9,0.1-7.3,1-10,2.1C37.8,44.4,37.1,41.1,37.1,37.2z M48.7,46.8v13.6   c-2.1-1.4-6.6-4.9-9.4-11.6C41.9,47.8,45,46.9,48.7,46.8z M50.4,61V46.8c4.1,0.1,7.6,1.2,10.3,2.4C57.3,57,51.6,60.4,50.5,61   C50.5,61,50.4,61,50.4,61z M50.4,45.2v-8H60c0.3,1.5,1.5,2.7,2.9,3.1c-0.3,2.8-0.9,5.2-1.7,7.4C58.4,46.4,54.8,45.3,50.4,45.2z    M64.6,40.4c1.7-0.3,3-1.5,3.3-3.2h6.2c-0.2,5.8-2.4,11-5.9,15.2c-0.9-0.9-2.7-2.5-5.5-4C63.6,46.1,64.3,43.4,64.6,40.4z    M67.3,19.4c-0.6,0.7-2.3,2.2-5,3.7c-2.3-5.5-5.8-9-8.2-10.9C59.2,13.2,63.8,15.7,67.3,19.4z M46.4,12c-2.1,1.6-5,4.3-7.3,8.6   c-1.4-0.2-2.9,0.3-3.8,1.5c0,0-0.1,0.1-0.1,0.1c-1.8-1.2-3-2.3-3.5-2.8C35.6,15.4,40.7,12.7,46.4,12z M32,53.6   c0.9-0.8,2.8-2.6,5.9-4.1c2.4,5.8,6.1,9.4,8.6,11.3C40.8,60.1,35.8,57.5,32,53.6z M54.1,60.6c2.4-1.9,5.8-5.3,8.1-10.6   c2.5,1.4,4.2,2.9,5,3.6C63.7,57.1,59.1,59.6,54.1,60.6z"></path></g></svg>