<svg fill="#FFFFFF" xmlns="http://www.w3.org/2000/svg" xmlns:xlink="http://www.w3.org/1999/xlink" version="1.2" baseProfile="tiny" x="0px" y="0px" viewBox="0 0 128 128" overflow="visible" xml:space="preserve"><g><circle fill="none" stroke="#FFFFFF" stroke-width="4" stroke-linecap="round" stroke-linejoin="round" stroke-miterlimit="10" cx="64" cy="64" r="62"></circle><path d="M64,7C32.5,7,7,32.5,7,64s25.5,57,57,57s57-25.5,57-57S95.5,7,64,7z M65,48.8c2.7-3.6,7.1-5.8,12-5.8c8,0,14,6,14,14   c0,3.4-2,6.3-3.4,8.2c0,0,0,0.1-0.1,0.1l-17,21c-2.5,3.1-4,5-4,5c-0.3,0.4-0.9,0.7-1.4,0.8c0,0-0.1,0-0.1,0c-0.5,0-1-0.2-1.4-0.6   c-0.1-0.1-1.9-1.8-4.4-5L42.4,65.2c0,0,0-0.1-0.1-0.1C41,63.3,39,60.4,39,57c0-8,6-14,14-14C57.9,43,62.3,45.2,65,48.8z    M112.1,76.8c0.6,0.2,1.1,0.8,1.2,1.4c0.2,0.6,0,1.3-0.4,1.8c-0.5,0.6-5.2,5.7-10.1,5.7c-0.1,0-0.1,0-0.2,0c-1.2,0-2.4-0.4-3.4-1.1   c-0.6,1-1.3,2-2,3c3.6,0.6,6.9,2.7,7.4,3.1c0.5,0.4,0.9,1,0.9,1.6c0,0.7-0.3,1.3-0.8,1.7c-0.6,0.4-5,3.5-9.3,3.5   c-0.7,0-1.3-0.1-2-0.2c-1.3-0.4-2.4-1.1-3.3-2.1c-3.8,3-8.1,5.2-12.9,6.6c-0.6,0.2-1.2,0.3-1.9,0.5c-2.5,0.7-5.2,1.4-7.6,2.5   c1.5,1.4,2.8,3.1,3.6,5.2c0.4,1-0.1,2.2-1.2,2.6c-0.2,0.1-0.5,0.1-0.7,0.1c-0.8,0-1.6-0.5-1.9-1.3c-0.7-1.9-2-3.3-3.6-4.5   c-1.6,1.2-2.9,2.6-3.6,4.5c-0.3,0.8-1.1,1.3-1.9,1.3c-0.2,0-0.5,0-0.7-0.1c-1-0.4-1.6-1.5-1.2-2.6c0.8-2.1,2.1-3.8,3.6-5.2   c-2.5-1.1-5.2-1.8-7.6-2.5c-0.6-0.2-1.3-0.3-1.9-0.5C46,100.3,41.7,98,37.9,95c-0.9,1-2,1.8-3.3,2.1c-0.7,0.2-1.3,0.2-2,0.2   c-4.3,0-8.8-3.1-9.3-3.5c-0.5-0.4-0.8-1-0.8-1.7c0-0.7,0.3-1.3,0.9-1.6c0.5-0.3,3.8-2.5,7.4-3.1c-0.7-1-1.4-1.9-2-3   c-1,0.7-2.1,1-3.4,1.1c-0.1,0-0.1,0-0.2,0c-4.9,0-9.5-5.1-10.1-5.7c-0.4-0.5-0.6-1.2-0.4-1.8c0.2-0.6,0.6-1.2,1.2-1.4   c0.6-0.2,5-1.8,8.9-1.2c-0.3-1-0.5-2-0.7-3c-0.7,0.2-1.4,0.4-2.1,0.4c-0.6,0-1.2-0.1-1.9-0.3c-4.8-1.4-7.6-7.9-7.9-8.7   c-0.3-0.6-0.2-1.3,0.2-1.9c0.4-0.6,1-0.9,1.6-0.9c0.7,0,5.8-0.1,9.4,2c0-1.2,0.1-2.4,0.3-3.6c-1.8-0.2-3.3-1.1-4.3-2.4   c-3.1-3.9-1.7-10.9-1.6-11.7c0.1-0.6,0.6-1.2,1.2-1.4c0.6-0.3,1.3-0.2,1.8,0.2c0.5,0.3,3.5,2.3,5.5,5.2c0.5-1.3,1.1-2.5,1.7-3.7   c-1.5-0.9-2.5-2.2-2.9-3.8c-1.3-4.8,2.6-10.7,3.1-11.4c0.4-0.5,1-0.9,1.6-0.9s1.3,0.3,1.6,0.9c0.3,0.4,2.1,3.1,2.9,6.2   c0.7-0.7,1.4-1.4,2.2-2.1c-0.3-1.6-0.1-3.1,0.7-4.4c2.4-4.3,9.4-5.7,10.2-5.9c0.6-0.1,1.3,0.1,1.8,0.6c0.5,0.5,0.7,1.1,0.6,1.8   c-0.1,0.8-1.5,7.8-5.9,10.2c-1,0.6-2,0.8-3.2,0.8c-0.5,0-1-0.1-1.5-0.2c-7.4,6.5-12,16.7-12,27c0,15.3,10.1,28.9,24.7,33.1   c0.6,0.2,1.2,0.3,1.8,0.5c3.2,0.9,7,1.9,10.3,3.7c3.3-1.8,7.1-2.9,10.3-3.7c0.6-0.2,1.2-0.3,1.8-0.5c14.5-4.1,24.7-17.7,24.7-33.1   c0-10.3-4.6-20.6-12-27c-0.5,0.1-1,0.2-1.5,0.2c-1.1,0-2.2-0.3-3.2-0.8c-4.3-2.4-5.7-9.4-5.9-10.2c-0.1-0.6,0.1-1.3,0.6-1.8   c0.5-0.5,1.1-0.7,1.8-0.6c0.8,0.1,7.8,1.5,10.2,5.9c0.8,1.4,1,2.9,0.7,4.4c0.8,0.7,1.5,1.3,2.2,2.1c0.8-3.1,2.6-5.8,2.9-6.2   c0.4-0.5,1-0.9,1.6-0.9s1.3,0.3,1.6,0.9c0.5,0.7,4.4,6.6,3.1,11.4c-0.5,1.6-1.5,2.9-2.9,3.8c0.6,1.2,1.2,2.4,1.7,3.7   c2-2.9,5.1-4.9,5.5-5.2c0.6-0.4,1.2-0.4,1.8-0.2c0.6,0.3,1,0.8,1.2,1.4c0.2,0.8,1.5,7.8-1.6,11.7c-1.1,1.3-2.6,2.2-4.3,2.4   c0.2,1.2,0.3,2.4,0.3,3.6c3.6-2.1,8.7-2,9.4-2c0.7,0,1.3,0.4,1.6,0.9c0.4,0.6,0.4,1.2,0.2,1.9c-0.3,0.7-3.2,7.2-7.9,8.7   c-0.6,0.2-1.2,0.3-1.9,0.3c-0.7,0-1.4-0.1-2.1-0.4c-0.2,1-0.5,2-0.7,3C107.1,75,111.5,76.5,112.1,76.8z"></path></g></svg>