<?xml version="1.0" encoding="utf-8"?>
<!-- Generator: Adobe Illustrator 16.0.0, SVG Export Plug-In . SVG Version: 6.00 Build 0)  -->
<!DOCTYPE svg PUBLIC "-//W3C//DTD SVG 1.1//EN" "http://www.w3.org/Graphics/SVG/1.1/DTD/svg11.dtd">
<svg version="1.1" id="Capa_1" xmlns="http://www.w3.org/2000/svg" xmlns:xlink="http://www.w3.org/1999/xlink" x="0px" y="0px"
	 width="33.089px" height="33.089px" viewBox="0 0 33.089 33.089" enable-background="new 0 0 33.089 33.089" xml:space="preserve">
<g>
	<path fill="#828282" d="M24.197,2.022c0.018-0.306-0.865-0.181-0.865-0.181s0.775-1.533,0.506-1.479
		c-0.271,0.054-0.271-0.396-0.434-0.36s-0.486,0.089-0.505,0.36s-0.687,1.443-0.976,1.695s-1.361,0.652-1.361,0.652
		s0.167-0.41,0.279-0.689c0.058-0.136-0.549-0.724-1.225-1.064c-0.711-0.356-1.496-0.461-1.552-0.378
		c-0.108,0.163-0.83,1.046-0.83,1.046s-1.245-0.613-1.479-0.325c-0.234,0.289,0.541,1.263,0.541,1.263L15.72,4.221
		c0,0-0.703-0.649-1.154-0.577c-0.45,0.073-0.794,0.577-0.794,0.577l-1.875-1.01c0,0,0-1.209-0.217-1.335
		c-0.216-0.125-0.469-0.09-0.685-0.288c-0.135-0.124-0.389,0.028-0.686,0.09C10.131,1.715,9.91,1.615,9.767,1.696
		C9.389,1.913,9.371,3.211,9.371,3.211S8.812,3.733,8.902,4.112c0.09,0.38,0.86,0.536,0.86,0.536s0.853,1.159,1.304,1.412
		c0.45,0.253,2.524,0.974,2.524,0.974s0.135,1.167,0.397,2.201c0.209,0.83,0.569,1.53,0.505,1.803
		c-0.144,0.613-0.722,2.164-0.722,2.164l1.263,0.505c0,0-0.244,1.181-0.433,2.092c-0.189,0.91,0.577,1.804,0.577,1.804l-1.01,6.564
		h-0.325l-0.036,1.694c0,0-0.686,5.267-0.542,5.411c0.145,0.145,0.83,0,0.83,0s-0.252,1.441-0.072,1.577
		c0.18,0.135,5.192,0.46,5.157,0c-0.035-0.461-2.092-1.073-2.199-1.577c-0.108-0.505-0.216-4.51-0.216-4.51l1.333,0.648
		c0,0,1.01-1.209,2.256-2.435c1.199-1.181,2.637-2.366,2.759-3.013c0.253-1.315-4.059-6.006-4.004-6.492
		c0.056-0.487,0.334-1.853,0.396-2.165c0.063-0.311-0.07-3.138-0.07-3.138l0.252-1.804L19,6.527l1.568-1.748
		c0,0,0.688,0.277,0.795,0.079C21.468,4.66,21.236,4.2,21.236,4.2l1.227-1.533C22.464,2.67,24.178,2.328,24.197,2.022z
		 M19.725,21.392l-2.382,1.911l0.723-3.317L19.725,21.392z"/>
</g>
</svg>
