<?xml version="1.0" encoding="iso-8859-1"?>
<!-- Generator: Adobe Illustrator 16.0.0, SVG Export Plug-In . SVG Version: 6.00 Build 0)  -->
<!DOCTYPE svg PUBLIC "-//W3C//DTD SVG 1.1//EN" "http://www.w3.org/Graphics/SVG/1.1/DTD/svg11.dtd">
<svg version="1.1" id="Capa_1" xmlns="http://www.w3.org/2000/svg" xmlns:xlink="http://www.w3.org/1999/xlink" x="0px" y="0px"
	 width="32.648px" height="32.647px" viewBox="0 0 32.648 32.647" style="enable-background:new 0 0 32.648 32.647;"
	 xml:space="preserve">
<g>
	<g>
		<path d="M13.938,14.516c-0.044-0.35-0.551-1.296-0.575-1.767c-0.023-0.473,0.661-3.326,0.401-3.787
			c-0.259-0.46-0.992-1.302-1.12-1.469c-0.127-0.167,0-0.523-0.248-0.819c-0.248-0.295-0.771-0.519-0.771-0.519l0.004-0.365
			c0,0,0.343-0.25,0.366-0.673c0.013-0.245-0.142-0.33-0.142-0.33s0.106-0.72-0.188-1.038c-0.123-0.132-0.095-0.531-0.791-0.731
			C10.326,2.86,9.659,3.065,9.659,3.065s0.271-0.647,0.56-0.747c0.289-0.099,0.785,0.086,1.056,0.193
			c0.145,0.057,0.469,0.038,0.755,0.071c0.249,0.027,0.542,0.165,0.519,0.034c-0.029-0.162-0.328-0.32-0.328-0.32
			s0.116-0.293,0.021-0.375c-0.094-0.083-0.155-0.134-0.251-0.216c-0.051-0.043-0.089-0.294-0.197-0.504
			c-0.097-0.188-0.26-0.338-0.366-0.377c-0.104-0.039-0.596,0.002-0.915,0.197c-0.29,0.178-0.984,0.524-1.067,0.486
			c-0.153-0.07-0.837-0.543-1.108-0.578c-0.129-0.017-0.313,0.325-0.767,0.85c-0.5,0.578-1.272,1.352-1.375,1.567
			C6.001,3.757,6.604,4.987,6.604,4.987s0.271,0.838,0.483,1.251c0.212,0.412,0.92,1.553,0.92,1.553l-1.132,3.342l0.083,0.778
			c0,0-0.13-0.007-0.337-0.019c-0.206-0.012-0.512,0.49-0.476,0.82c0.035,0.331,0.672,1.475,0.813,1.475
			c0.141,0,2.005,0.083,2.005,0.083s-0.087,0.741-0.142,1.202c-0.055,0.463-0.36,0.924-0.425,1.381
			c-0.283,2.005,0.885,4.611,0.885,5c0,0.189-0.156,0.852-0.375,1.715c-0.072,0.283-0.55,0.712-0.616,0.963
			c-0.143,0.548,0.094,1.039,0.094,1.039s-0.106,1.827-0.248,2.264c-0.142,0.438-0.522,1.121-0.649,1.356
			c-0.126,0.235-0.129,0.967-0.271,1.321c-0.142,0.354-0.401,0.767-0.484,1.154c-0.083,0.391-0.059,1.026,0.425,0.979
			c0.484-0.047,0.755-0.2,0.991-0.436c0.236-0.236,0.566-0.638,0.637-1.098c0.071-0.46,0.224-1.133,0.167-1.35
			c-0.057-0.218-0.084-0.773,0.069-1.375c0.153-0.603,1.227-2.254,1.227-2.254s0.413,0.473,0.613,0.53
			c0.201,0.06,0.448,1.534,0.731,2.076c0.283,0.543,0.319,1.062,0.236,1.216c-0.083,0.152-0.471,1.038-0.661,1.285
			c-0.236,0.307-0.531,0.566-0.554,0.777c-0.024,0.213,0.106,0.473,0.531,0.483c0.424,0.013,0.742-0.083,1.002-0.295
			c0.259-0.212,0.331-0.495,0.588-0.672c0.258-0.178,0.58-0.188,0.686-0.331c0.106-0.141-0.071-0.825-0.203-1.044
			c-0.139-0.229-0.403-2.521-0.375-3.685c0.009-0.397,0.248-0.226,0.106-1.051c-0.201-1.172-0.618-1.912-0.602-2.029
			c0.048-0.342,1.911-6.038,1.829-7.006C14.094,15.427,13.982,14.865,13.938,14.516z M8.079,12.407
			c-0.177,0.013-0.472-0.259-0.472-0.259l0.472-1.015c0,0,0.118,0.555,0.448,1.132C8.389,12.324,8.256,12.395,8.079,12.407z
			 M8.728,5.271C8.729,5.142,8.74,4.788,8.704,4.622C8.669,4.457,8.339,4.269,8.339,4.269l0.778-0.756c0,0-0.141,1.135-0.106,1.416
			s0.059,0.46,0.071,0.602c0.011,0.142,0.188,0.26,0.259,0.318c0.071,0.06,0.106,0.613,0.106,0.613S8.726,5.401,8.728,5.271z"/>
		<path d="M26.503,12.03c0.012-0.142-0.023-0.685-0.261-0.944c-0.235-0.259-0.495-0.483-0.722-0.52
			c-0.228-0.037-0.163-0.482-0.352-0.524C24.98,10,25.252,9.554,25.076,9.447C24.9,9.34,23.905,8.7,23.708,8.574
			c-0.196-0.125-0.33-0.013-0.507,0.083c-0.177,0.094-1.005-0.271-1.085-0.292s-0.013-0.241-0.022-0.429
			c-0.012-0.187,0.035-0.306,0.251-0.438c0.215-0.133,0.256-0.176,0.244-0.363C22.576,6.946,22.8,6.557,22.73,6.462
			c-0.07-0.095-0.145-0.027-0.146-0.202c-0.002-0.176,0.021-0.873-0.216-1.05c-0.235-0.178-0.453-0.741-1.244-0.706
			c-0.789,0.035-1.297,0.755-1.284,0.991c0.011,0.235-0.13,0.813-0.06,1.037s0.094,0.979,0.221,1.17
			c0.125,0.191,0.408,0.359,0.534,0.47c0.126,0.111,0.188,0.566,0.143,0.72c-0.047,0.153-0.496,0.012-0.625-0.106
			S19.9,8.492,19.602,8.369c-0.298-0.121-0.38-0.184-0.571-0.276C18.839,8,18.777,8.118,18.777,8.118s-0.505-0.291-0.705-0.405
			c-0.2-0.114-0.283,0.378-0.283,0.378s-0.142-0.566-0.319-0.755c-0.177-0.188-0.578,0.565-0.578,0.565s-0.413-0.342-0.72-0.99
			c-0.307-0.649-0.708-1.816-0.708-1.816s0.307-0.165,0.401-0.165c0.094,0,0.888,1.227,0.888,1.227s2.201-1.227,1.896-3.303
			C18.342,0.779,16.644,0,16.644,0l-1.51,2.76c0,0-0.153-0.177-0.259-0.083c-0.106,0.094-0.574,0.592-0.693,0.719
			c-0.12,0.127-0.038,0.412,0,0.626c0.039,0.214,0.233,0.377,0.198,0.507c-0.035,0.13-0.142,0.578-0.07,0.755
			c0.07,0.177,0.342,0.035,0.342,0.035s0.672,2.761,0.896,2.961s1.097,0.92,1.097,0.92s-0.095,0.602-0.036,0.943
			c0.059,0.341,0.401,0.602,0.401,0.602s-0.054,0.108-0.118,0.236c-0.064,0.127,0.342,0.625,0.342,0.625s-0.555,0.672-0.543,0.85
			c0.012,0.177,1.085,0.152,1.085,0.152s-0.078,0.288-0.177,0.649c-0.099,0.361,1.498,0.283,1.498,0.283s0.212,1.097,0.083,1.45
			c-0.13,0.354-1.863,2.971-2.041,3.268c-0.177,0.297,0.672,0.969,0.566,1.32c-0.106,0.354-0.6,1.41-0.814,1.876
			c-0.214,0.466,0.778,0.047,0.719,0.531c-0.059,0.483-0.305,0.85-0.413,1.037s0.436,0.212,0.283,0.343
			c-0.154,0.13-0.389,0.295-0.437,0.602c-0.047,0.308,0.885,0.695,0.802,1.015s-0.79,1.793-0.496,1.958
			c0.152,0.086,0.612,0.011,0.92,0.095c0.292,0.079,0.472,0.153,0.436,0.317c-0.034,0.166-0.062,0.404-0.094,0.649
			s0.705-0.06,0.944-0.024c0.239,0.037,0.152,0.26,0.342,0.33c0.188,0.071-0.071,0.603,0.188,0.757
			c0.259,0.151,0.438-0.05,0.542-0.13c0.103-0.082,0.425-0.024,0.425-0.024s0.554,2.171,0.436,2.44
			c-0.118,0.271-0.36,0.465-0.472,0.791c-0.09,0.267,0.188,0.461,0.661,0.437c0.472-0.022,1.062-0.33,1.25-0.554
			c0.188-0.225,0.061-0.271,0.154-0.376c0.095-0.106,2.027-0.025,2.168-0.298c0.143-0.271-0.177-0.506-0.425-0.789
			s0.672-0.389,0.578-0.672s-0.271-1.039-0.271-1.039s-0.235-0.564-0.2-0.801c0.035-0.238,0.46-0.048,0.448-0.236
			c-0.013-0.188-0.367-0.596-0.473-0.766c-0.104-0.173,0.473-0.354,0.378-0.449c-0.095-0.096-0.248-0.235-0.224-0.461
			c0.023-0.224,0.436-0.377,0.377-0.578c-0.059-0.199-0.531-0.85-0.542-1.131c-0.012-0.283,0.469-0.521,0.767-0.851
			c0.298-0.329-0.613-0.989-0.613-0.989s-0.177-0.309-0.143-0.578c0.036-0.271,0.289-1.341,0.366-1.699
			c0.078-0.358-0.153-1.285-0.394-1.514c-0.24-0.229-0.303-0.574-0.373-0.811c-0.114-0.377,0.083-0.473-0.118-0.684
			c-0.185-0.194-0.92-0.896-1.073-1.205c-0.153-0.306-0.201-0.896-0.201-0.896l1.286-1.155l1.026-0.731c0,0,0.118,0.225,0.259,0.082
			c0.142-0.141,0.175-0.188,0.283-0.306c0.107-0.117-0.106-0.472-0.106-0.472S26.49,12.172,26.503,12.03z"/>
	</g>
</g>
<g>
</g>
<g>
</g>
<g>
</g>
<g>
</g>
<g>
</g>
<g>
</g>
<g>
</g>
<g>
</g>
<g>
</g>
<g>
</g>
<g>
</g>
<g>
</g>
<g>
</g>
<g>
</g>
<g>
</g>
</svg>
