<?xml version="1.0" encoding="utf-8"?>
<!-- Generator: Adobe Illustrator 16.0.0, SVG Export Plug-In . SVG Version: 6.00 Build 0)  -->
<!DOCTYPE svg PUBLIC "-//W3C//DTD SVG 1.1//EN" "http://www.w3.org/Graphics/SVG/1.1/DTD/svg11.dtd">
<svg version="1.1" id="Capa_1" xmlns="http://www.w3.org/2000/svg" xmlns:xlink="http://www.w3.org/1999/xlink" x="0px" y="0px"
	 width="34.811px" height="34.811px" viewBox="0 0 34.811 34.811" enable-background="new 0 0 34.811 34.811" xml:space="preserve">
<g>
	<path fill="#828282" d="M30.899,30.824c-0.021-0.067-0.835-0.428-1.694-0.985c-0.071-0.046,0.254-0.232,0.178-0.277
		c-0.937-0.558-1.286-0.416-2.022-0.859c-2.207-1.334-4.628-3.11-4.628-3.11s1.021-2.486,0.903-3.105
		c-0.114-0.618-2.334-2.901-2.59-3.237c-0.255-0.332,0.182-1.205,0.066-2.229c-0.092-0.831-0.478-1.47-0.515-1.814
		c-0.085-0.771,0.109-1.649,0.439-2.082c0.331-0.432,1.824-1.352,1.824-1.352s0.817,0.595,1.284,0.692
		c0.467,0.101,1.051-0.022,1.32-0.291c0.271-0.267,0.286-0.935,0.152-1.28c-0.133-0.347-1.358-2.738-1.358-2.738
		s0.394-1.303,0.292-1.375c-0.102-0.074-0.119-0.31-0.119-0.31s0.082-0.705,0.005-0.846c-0.075-0.14-0.361-0.067-0.361-0.067
		s-0.043-0.234-0.208-0.234s-0.291,0.189-0.291,0.189s-0.147,0.173-0.239,0.276c-0.092,0.104-0.229-0.051-0.431,0.089
		c-0.203,0.141-0.403,0.783-0.403,0.783s-1.619-0.518-2.189-0.837c-0.571-0.318-1.174-1.502-1.174-1.502L19.128,3.65
		c0,0,0.354-0.366,0.403-0.847c0.051-0.481-0.188-0.581-0.188-0.581s0.356-1.221-0.177-1.656c-0.407-0.334-0.91-0.596-1.585-0.563
		c-0.674,0.029-0.743,0.19-1.227,0.315c-0.485,0.125-0.413,0.968-0.413,0.968L15.838,2.26c0,0-0.251-1.062-0.719-1.287
		c-0.468-0.229-0.67-0.709-1.854-0.511c-1.186,0.198-1.717,1.837-1.717,1.837s-0.753,0.418-0.477,1.336
		c0.276,0.919,1.368,0.84,1.507,1.093c0.139,0.254,0.038,1.1,0.038,1.1s-1.852,4.139-2.168,4.845s-0.232,1.694-0.007,1.745
		c0.568,0.127,1.65-0.606,1.65-0.606c0.019,0.695,0.954,0.985,1.036,1.423c0.083,0.438-2.76,9.546-3.421,10.514
		c-0.661,0.971-0.944,0.842-1.72,2.276c-0.663,1.229-1.34,4.072-1.846,4.932c-0.506,0.86-2.023,1.721-2.183,2.276
		s0.032,1.543,0.477,1.577c0.443,0.032,0.958-0.199,1.099-0.338c0.136-0.134,0.459-0.669,0.885-1.215
		c0.383-0.488,0.879-0.986,0.919-1.215c0.033-0.188,0.37-1.369,1.129-2.555c1.187-1.851,2.978-3.925,2.978-3.925
		s0.139,3.518,0.177,4.492s0.894,1.984,0.931,2.594c0.038,0.605-0.284,0.813-0.492,1.037c-0.208,0.223-0.379,0.506,0.126,0.53
		c0.506,0.025,2.402,0.004,2.748,0.001c0.345-0.004-0.042-2.81,0.186-3.448c0.229-0.643,1.535-7.639,1.535-7.639
		s1.619,2.831,2.045,3.574c0.425,0.743,1.292,1.428,1.292,1.428s0.133,1.363-0.016,1.811c-0.147,0.446-0.578,1.095-0.828,1.492
		c-0.249,0.396-0.287,2.308-0.287,2.308l0.254,0.096l0.38-0.759c0,0,0.202,1.44,0.51,1.521c0.308,0.078,1.037,0.063,1.546,0.115
		c0.51,0.054,0.752-0.348,0.551-0.474c-0.203-0.127-0.223-0.138-0.532-0.329c-0.311-0.19-0.277-0.506-0.277-0.506l0.224-3.745
		l5.521,3.593l0.498-0.206c0,0,0.183,0.385-0.02,0.563c-0.203,0.177-0.302,0.058-0.708,0.253c-0.247,0.119-0.146,0.361,0.354,0.479
		c0.325,0.078,1.01,0.021,1.392,0c0.383-0.021,0.848-1.039,0.848-1.039l0.271-1.032c0,0,0.501,0.05,0.627-0.229
		C30.418,31.759,30.974,31.076,30.899,30.824z M16.333,6.176c-0.102,0.079-1.214,0.079-1.214,0.079s-0.114-0.82,0-0.909
		c0.114-0.091,0.266-0.178,0.405-0.24c0.139-0.063,0.43-1.441,0.43-1.441l0.726,1.54C16.676,5.203,16.434,6.097,16.333,6.176z"/>
</g>
</svg>
