<?xml version="1.0" encoding="utf-8"?>
<!-- Generator: Adobe Illustrator 16.0.0, SVG Export Plug-In . SVG Version: 6.00 Build 0)  -->
<!DOCTYPE svg PUBLIC "-//W3C//DTD SVG 1.1//EN" "http://www.w3.org/Graphics/SVG/1.1/DTD/svg11.dtd">
<svg version="1.1" id="Capa_1" xmlns="http://www.w3.org/2000/svg" xmlns:xlink="http://www.w3.org/1999/xlink" x="0px" y="0px"
	 width="34.297px" height="34.297px" viewBox="0 0 34.297 34.297" enable-background="new 0 0 34.297 34.297" xml:space="preserve">
<g>
	<path fill="#828282" d="M30.516,7.553c-0.027-1.401-1.205-2.743-1.408-3.208c-0.205-0.464,0.242-2.529,0.088-2.968
		c-0.151-0.438-0.497-1.259-1.752-1.333c-1.256-0.075-1.869,0.885-1.979,1.109c-0.108,0.225-0.104,1.406-0.118,1.604
		c-0.018,0.198,0.237,0.375,0.237,0.375s0.158,0.63,0.12,0.914c-0.037,0.285,0.77,1.121,0.704,1.259
		c-0.029,0.063-0.323,0.186-0.497,0.491c-0.199,0.35-0.301,0.895-0.655,1.097c-0.669,0.378-1.571,0.353-3.253,0.51
		c-1.684,0.157-1.791,0.81-2.277,0.75c-0.223-0.028-0.412-0.418-0.93-0.75c-0.621-0.397-1.571-0.748-1.649-0.794
		c-0.144-0.086,0.12-0.423,0.12-0.423s0.191,0.183,0.419,0.153c0.229-0.03,0.524-0.405,0.524-0.405s0.597,0.266,1.124-0.3
		c0.527-0.566,0-1.604,0-1.604s0.773-1.18-0.044-2.218c-0.821-1.038-1.545-0.779-1.545-0.779S17.604,0.4,17.341,0.299
		c-0.263-0.102-0.541,0.06-0.541,0.06s-0.231-0.509-0.792-0.315c-0.563,0.195-0.529,1.03-0.661,1.184
		c-0.13,0.153-0.486,0.116-0.764,0.689s0.27,1.019,0.27,1.019s0.075,0.836,0.315,1.02c-0.454,0.232-0.51,0.546-0.405,0.794
		c0.104,0.247,0.569,0.102,0.563,0.262c-0.006,0.161-0.578,0.547-0.868,0.553c-0.288,0.006-0.879-0.309-1.613,0.369
		c-0.736,0.678-0.45,1.394-0.45,1.394s0.025,3.358,0.03,4.137c0.005,0.778-0.892,1.064-1.588,2.233
		c-0.519-1.304-2.469-1.565-2.469-1.565s-0.5-0.391-1.444,0.171c-0.943,0.562-0.831,1.552-0.831,1.552s-1.146,0.562-1.483,1.461
		c-0.338,0.899,0.404,1.619,0.404,1.619s-1.754,4.137-1.079,6.992c0.675,2.855,2.676,4.767,3.911,4.945
		c0.151,0.17,0.067,1.281,0.285,1.315c0.217,0.035,0.592,0.101,0.607-0.342c0.435,0.194,0.312,0.782,0.467,1.176
		c0.156,0.392,1.337,0.491,1.337,0.491s-0.427,1.029-0.349,1.518c0.078,0.487,0.059,1.215,0.935,1.102
		c0.877-0.111,0.9-1.19,0.9-1.19l0.404-1.753c0,0,1.395,0.066,1.573-0.314c0.181-0.383-0.064-1.324-0.064-1.324
		s0.649,0.447,1.054,0.381c0.405-0.066,1.191-0.697,1.169-1.104s-1.078-1.102-1.078-1.102s0.741-0.113,1.123-0.473
		c0.383-0.358,0.45-1.08,0.179-1.525c-0.271-0.447-0.492-0.497-1.168-0.587c0.766-0.384,2.271-0.765,2.271-0.765l1.481-0.293
		l-0.312,6.813c0,0-0.584-0.227-0.722,0.158c-0.135,0.382-0.09,0.674,0.496,1.259c-0.293,0.247-1.35-0.112-1.708,0.358
		c-0.359,0.474,0.988,1.236,2.113,1.35c0.719,0.07,1.58-0.463,1.58-0.463s0.063,0.688,0.555,0.732
		c0.496,0.043,0.9-0.135,1.059-1.236c0.076-0.536-0.021-1.26,0.246-1.708c0.271-0.45-0.291-1.89-0.021-3.06
		c0.271-1.168,0.874-4.975,1.013-5.754c0.138-0.781,3.418-4.789,3.574-5.374c0.156-0.584,0.139-1.812,0.139-1.812
		s1.008,0.17,1.179,0.009c0.169-0.162-0.171-1.188,0.077-1.404c0.246-0.217,1.351-1.356,1.682-1.983
		C30.251,11.343,30.542,8.955,30.516,7.553z M9.736,30.2c-0.359-0.156-0.99-0.664-0.99-1.203s0-0.888,0.114-1
		c0.113-0.111,0.381-0.371,0.381-0.371l0.573,0.674c0,0-0.102,0.236-0.19,0.428C9.533,28.918,10.095,30.357,9.736,30.2z
		 M12.095,31.674c-0.066,0.525-0.168,1.166-0.791,1.115c-0.491-0.039-0.771-0.264-0.603-0.804s0.473-1.495,0.529-1.688
		c0.359,0.328,1.011,0.598,1.011,0.598S12.165,31.149,12.095,31.674z M16.728,13.001l0.201-1.034c0,0,0.563,0.281,0.676,0.36
		c-0.022,0.337,0.111,0.674,0.111,0.674H16.728z M21.357,12.821c-0.156,0.348,0.568,0.134,0.52,0.359
		c-0.053,0.226-1.475,6.521-1.475,6.521s-0.674-0.35-0.819-0.607c-0.146-0.26-0.11-0.922-0.11-0.922s0.234-0.239,0.195-0.587
		c-0.039-0.346-0.421-0.312-0.376-0.74c0.044-0.427,1.292-1.978,1.394-2.292c0.103-0.315-1.189-0.788-1.189-0.788
		s0.214-0.832,0.044-0.989c-0.169-0.157-1.821-1.686-1.821-1.686s0.396-0.596,0.563-0.697c0.506,0.011,0.953-0.191,1.279-0.18
		c0.328,0.011,0.965,0.539,1.328,0.562c0.43,0.027,0.898-0.056,1.012-0.337c0.111-0.281-0.202-1.056-0.202-1.056l1.395,0.225
		C23.089,9.607,21.516,12.473,21.357,12.821z"/>
</g>
</svg>
