<svg fill="#EF8A52" xmlns="http://www.w3.org/2000/svg" data-name="Layer 1" viewBox="0 0 100 100" x="0px" y="0px"><title>Plants</title><path d="M82.15,40.06a0.75,0.75,0,1,0,1.37.61c0.12-.28,1.16-2.73-0.13-4-0.27-.32-2.34-2.7-4.07-3.16A22.58,22.58,0,0,0,68.95,33a4.85,4.85,0,0,0-.4-0.73,6.86,6.86,0,0,0-4.08-3.35,13.49,13.49,0,0,0-8.27-.17,21.54,21.54,0,0,0-.42-3A10.5,10.5,0,0,1,55.84,22a6.54,6.54,0,0,1,3.15.13A0.75,0.75,0,0,0,59.85,21a5.87,5.87,0,0,1-.44-0.89c-0.45-1-1.2-2.74-3.69-2a5.2,5.2,0,0,1-1.84-.14,6,6,0,0,0-3.56.16c-1.38.46-2.77,2.53-4.14,6.16a45.77,45.77,0,0,0-2.08,7.44,22.27,22.27,0,0,0-2.49-1.71c-3.71-2.18-11.49-5.33-22-1.9a5.45,5.45,0,0,0-4.15,3.5,0.75,0.75,0,1,0,1.44.42,4,4,0,0,1,3-2.46c0.7,0,7.84-.25,13.29,3.56C37.17,36,40.9,38.89,43.45,43.1c-7.14-4.63-14.6-5.23-23.24-1.93-2.38.66-2.92,3.59-2.94,3.72a0.75,0.75,0,0,0,.61.87H18a0.75,0.75,0,0,0,.74-0.62s0.38-2,1.77-2.5c0.19,0,.41,0,0.66,0a31.46,31.46,0,0,1,10.46,1.41c-5.2,2.19-5.72,6.29-5.75,6.48a0.75,0.75,0,0,0,1.27.62,20.13,20.13,0,0,1,3.15-2.4c1.58-1,3.86-2,5.85-1.54a33.41,33.41,0,0,0,3.25,2.65,9.66,9.66,0,0,0-6.25,2c-3.31,2.65-5,7.82-5.28,15.79a0.75,0.75,0,0,0,1.36.46c0.05-.08,5.52-7.67,8.57-10.55,0.3-.28.58-0.56,0.84-0.84,1.93,0.06,3.26,4.72,4,7.26v0c-4.13.23-4.89,0.67-4.91,1.49h0a48.36,48.36,0,0,0,2.7,17,0.75,0.75,0,0,0,.46.46,22.35,22.35,0,0,0,13.77,0,0.75,0.75,0,0,0,.46-0.46,48.37,48.37,0,0,0,2.7-17v0c0-.85-1.09-1.07-2.26-1.23-0.85-.12-2-0.21-3.37-0.28,0.23-.63.48-1.35,0.77-2.1,1.56-1.73,6.76-6.62,13.76-3.86a0.75,0.75,0,0,0,.84-1.19,10.24,10.24,0,0,0-10.7-2.29,12.07,12.07,0,0,1,7.28-4.75,19.83,19.83,0,0,1,10.72.54A11.15,11.15,0,0,1,78,52.09a22.77,22.77,0,0,1,4.2,5.58A0.75,0.75,0,0,0,83.51,57a23.82,23.82,0,0,0-4.59-6.12,17,17,0,0,0-14.05-5.06,21.6,21.6,0,0,0-4,.86c3.83-5,8.47-8,13.84-9a19,19,0,0,1,7.72.13A3.16,3.16,0,0,1,82.15,40.06ZM51.63,65.52l1.15,0.06-1.22.13Zm4.7,1a43.65,43.65,0,0,1-.41,6.23l-0.09.09-2.08,2.28-2.19-2.59A0.75,0.75,0,0,0,51,72.26a0.74,0.74,0,0,0-.57.24l-2.62,2.83-2.7-2.91a0.75,0.75,0,0,0-1.12,0L41.87,75,39.71,72.6a0.74,0.74,0,0,0-.13-0.11,43.44,43.44,0,0,1-.38-6,44.9,44.9,0,0,0,8.56.88A45.06,45.06,0,0,0,56.33,66.52ZM48.19,59a103.77,103.77,0,0,1,1.33-19.16,0.74,0.74,0,0,0,0-.13A19.11,19.11,0,0,1,51.94,33a14.3,14.3,0,0,1,6.34-1.25c-1.54,2.1-2.57,6.52-3.8,12.42-0.7,3.37-1.43,6.86-2.15,7.92A20.32,20.32,0,0,0,48.19,59Zm12.2-27.08,0.14,0a34.89,34.89,0,0,1,6.87,1.38l0.06,0.11A21.41,21.41,0,0,0,56.7,41C57.66,36.7,58.92,32.2,60.39,31.91Zm3.56-1.6a7.75,7.75,0,0,1,1.78.91c-1-.24-2.21-0.49-3.57-0.68a28.65,28.65,0,0,0-3.95-.29,20.82,20.82,0,0,0-2.21.11A12.34,12.34,0,0,1,63.94,30.32Zm-6.06-9.89a7.57,7.57,0,0,0-1.7,0c0.1-.37.19-0.68,0.26-0.9C57.3,19.34,57.54,19.65,57.89,20.42Zm-7.09-.78a4.58,4.58,0,0,1,2.78-.12,8.8,8.8,0,0,0,1.25.19,14.57,14.57,0,0,0-.54,6.36,17.8,17.8,0,0,1,.41,3.16A16.93,16.93,0,0,0,53,30a6.11,6.11,0,0,0-2.09,1.89,0.75,0.75,0,0,0-.12.17,16.81,16.81,0,0,0-2.15,5A15.9,15.9,0,0,0,45.43,33C46.2,27.76,49,20.25,50.8,19.64ZM34.09,32a22.21,22.21,0,0,0-9.23-3.51,24.15,24.15,0,0,1,16,2.91,20.76,20.76,0,0,1,3.27,2.38l0,0A11.84,11.84,0,0,1,48,39.63a65.41,65.41,0,0,0-1,7.83q-0.35-1.1-.77-2.12a0.74,0.74,0,0,0-.12-0.28C43.2,38.36,37.92,34.67,34.09,32ZM44.91,46a25,25,0,0,1,1.76,7.38,0.74,0.74,0,0,0,.05.21c0,0.1,0,.19,0,0.29a6.65,6.65,0,0,0-3.5-3.41A26.72,26.72,0,0,1,36,45a8.76,8.76,0,0,0-1.91-1.43l-0.08,0a22.71,22.71,0,0,0-9.07-2.23C32.21,39.56,38.66,41.1,44.91,46ZM28.62,48.09A9.48,9.48,0,0,1,33.56,45a7.56,7.56,0,0,1,.94.67A13.1,13.1,0,0,0,28.62,48.09Zm8.16,8.44a81.74,81.74,0,0,0-7.27,8.74c0.47-6.09,2-10.09,4.59-12.18a8.08,8.08,0,0,1,5.24-1.7q0.63,0,1.31.07c-0.24.33-.47,0.7-0.72,1.11A18,18,0,0,1,36.78,56.53Zm2.95-1a24.17,24.17,0,0,0,1.47-2.15,6.79,6.79,0,0,1,1.2-1.61l0.26,0.09,0.1,0h0c2.24,0.94,3.65,3.9,3.89,8.29,0,0,0,0,0,.06q0,2.55.13,5.31a0.74,0.74,0,0,0,.1.34c-0.75,0-1.49-.06-2.19-0.11-0.19-.44-0.45-1.37-0.67-2.14C43.23,60.7,42,56.53,39.73,55.51Zm3.36,10.1-0.34,0,0.32,0ZM53.82,81.72a20.91,20.91,0,0,1-12.1,0A47.24,47.24,0,0,1,40,75.13l1.35,1.48a0.72,0.72,0,0,0,.57.24,0.75,0.75,0,0,0,.56-0.27l2.11-2.52,2.67,2.88a0.75,0.75,0,0,0,.55.24h0a0.75,0.75,0,0,0,.55-0.24L51,74.14l2.19,2.6a0.75,0.75,0,0,0,.56.27,0.73,0.73,0,0,0,.57-0.24l1.21-1.32A47.13,47.13,0,0,1,53.82,81.72Zm8.85-26H62.49a13.66,13.66,0,0,0-8.12,2.89c0.29-.59.6-1.18,0.94-1.77A10.19,10.19,0,0,1,62.66,55.74ZM65,47.33a14.58,14.58,0,0,1,6.63.73,24.09,24.09,0,0,0-7.84.31C55.6,49.94,52.45,58.8,50.75,63.56a23.39,23.39,0,0,1-.89,2.28l-1.35.05a19,19,0,0,1,3.86-11.5A18,18,0,0,1,65,47.33ZM74.49,36.2C70,37,63.64,39.65,58.27,47.71a19.3,19.3,0,0,0-3.54,2.17c0.38-1.43.76-3.21,1.17-5.2,2.51-3.83,6.19-8.27,12-9.93a5.17,5.17,0,0,1,.06,1,0.75,0.75,0,0,0,.69.81h0.06a0.75,0.75,0,0,0,.75-0.69,6.53,6.53,0,0,0-.1-1.48,21.31,21.31,0,0,1,9.56.54,5,5,0,0,1,1.65,1A21.34,21.34,0,0,0,74.49,36.2Z"></path></svg>