<?xml version="1.0" encoding="iso-8859-1"?>
<!-- Generator: Adobe Illustrator 18.1.1, SVG Export Plug-In . SVG Version: 6.00 Build 0)  -->
<svg version="1.1" id="Capa_1" xmlns="http://www.w3.org/2000/svg" xmlns:xlink="http://www.w3.org/1999/xlink" x="0px" y="0px"
	 viewBox="0 0 345.566 345.566" style="enable-background:new 0 0 345.566 345.566;" xml:space="preserve">
<g>
	<g>
		<path style="fill:#ffa403;" d="M257.768,345.565v-73.134l16.121-116.826c24.944-6.489,43.137-26.167,43.137-49.376
			c0-23.344-18.15-43.23-43.692-49.55C257.627,22.828,217.971,0,172.783,0C127.59,0,87.939,22.828,72.236,56.68
			c-25.553,6.32-43.697,26.205-43.697,49.55c0,23.529,18.705,43.393,44.182,49.61l16.089,116.592v73.134
			C88.809,345.566,257.768,345.566,257.768,345.565z M240.651,328.454H105.909v-42.523h134.742
			C240.651,285.932,240.651,328.454,240.651,328.454z M45.645,106.23c0-17.786,17.09-32.406,39.052-34.32
			c9.453-31.405,45.258-54.804,88.08-54.804c42.827,0,78.622,23.393,88.08,54.804c21.957,1.904,39.047,16.54,39.047,34.32
			c0,17.9-17.318,32.618-39.493,34.359l-18.656,122.673H104.811L87.308,140.671C64.105,139.751,45.645,124.712,45.645,106.23z"/>
		<path style="fill:#000;" d="M125.06,224.062l0.098,0.734c0.37,2.877,2.828,4.966,5.651,4.966c0.245,0,0.495-0.016,0.745-0.049
			c2.872-0.375,4.863-2.839,4.863-5.651c0-0.256,0.087-0.49,0.049-0.745l-7.071-54.048l-2.562-19.586l-0.538-4.079l-0.098-0.74
			c-0.408-3.122-3.263-5.347-6.396-4.906c-2.067,0.267-3.639,1.653-4.411,3.432c-0.305,0.696-0.451,1.425-0.451,2.219
			c0,0.25-0.087,0.484-0.049,0.74l2.322,17.72L125.06,224.062z"/>
		<path style="fill:#000;" d="M214.587,229.713c0.256,0.033,0.5,0.049,0.751,0.049c2.828,0,5.276-2.089,5.64-4.966l0.109-0.734
			l7.892-60.308l2.279-17.394c0.033-0.256-0.054-0.49-0.054-0.74c0-0.903-0.201-1.73-0.593-2.491
			c-0.81-1.637-2.312-2.904-4.264-3.16c-3.155-0.435-5.994,1.784-6.396,4.906l-0.109,0.74l-0.49,3.764l-2.584,19.689l-7.103,54.255
			c-0.033,0.256,0.054,0.49,0.054,0.745C209.73,226.874,211.721,229.338,214.587,229.713z"/>
		<path style="fill:#000;" d="M170.292,224.062c0.887,0.555,1.866,0.963,2.986,0.963c1.126,0,2.11-0.408,2.997-0.963
			c1.599-1.017,2.709-2.714,2.709-4.748V176.53v-17.144v-13.772v-10.688c0-3.155-2.545-5.7-5.706-5.7c-3.155,0-5.7,2.545-5.7,5.7
			v10.688v13.81v17.138v42.751C167.578,221.348,168.693,223.051,170.292,224.062z"/>
	</g>
</g>
<g>
</g>
<g>
</g>
<g>
</g>
<g>
</g>
<g>
</g>
<g>
</g>
<g>
</g>
<g>
</g>
<g>
</g>
<g>
</g>
<g>
</g>
<g>
</g>
<g>
</g>
<g>
</g>
<g>
</g>
</svg>
